<?xml version="1.0" standalone="no"?>
<!DOCTYPE svg PUBLIC "-//W3C//DTD SVG 20010904//EN"
 "http://www.w3.org/TR/2001/REC-SVG-20010904/DTD/svg10.dtd">
<svg version="1.0" xmlns="http://www.w3.org/2000/svg"
 width="979.000000pt" height="15.000000pt" viewBox="0 0 979.000000 15.000000"
 preserveAspectRatio="xMidYMid meet">

<g transform="translate(0.000000,15.000000) scale(0.100000,-0.100000)"
fill="#000000" stroke="none">
<path d="M40 120 c-9 -16 -8 -20 5 -20 19 0 19 -19 0 -44 -19 -25 -19 -46 -1
-46 19 0 34 48 28 88 -5 40 -18 49 -32 22z"/>
<path d="M96 118 c-22 -31 -20 -38 9 -25 25 12 33 31 16 42 -5 3 -17 -5 -25
-17z"/>
<path d="M552 128 c-16 -16 -15 -28 3 -28 8 0 15 -4 15 -9 0 -5 -7 -14 -15
-21 -20 -16 -19 -49 1 -57 8 -3 23 2 32 11 15 15 15 16 -1 16 -16 0 -17 6 -12
44 7 45 -3 64 -23 44z"/>
<path d="M1151 121 c-15 -26 -14 -31 4 -25 19 8 19 -15 0 -40 -19 -25 -19 -46
-1 -46 19 0 34 48 28 88 -5 40 -18 49 -31 23z"/>
<path d="M1206 118 c-22 -31 -20 -38 9 -25 25 12 33 31 16 42 -5 3 -17 -5 -25
-17z"/>
<path d="M2261 122 c-15 -28 -14 -32 4 -26 19 8 20 -16 0 -42 -19 -24 -19 -44
-1 -44 18 0 30 35 27 80 -3 44 -16 58 -30 32z"/>
<path d="M2316 119 c-20 -29 -21 -46 -2 -30 8 7 25 11 38 10 46 -4 68 1 68 16
0 20 -39 19 -47 -1 -5 -14 -8 -13 -23 6 l-17 23 -17 -24z"/>
<path d="M3436 121 c-22 -24 -20 -30 5 -24 12 4 20 2 18 -3 -3 -5 -11 -21 -19
-37 -11 -22 -11 -30 -1 -40 10 -9 15 -8 27 8 9 12 11 21 4 23 -6 2 -8 19 -4
42 7 43 -6 58 -30 31z"/>
<path d="M3500 120 c-9 -16 -8 -20 5 -20 19 0 19 -14 0 -30 -19 -16 -19 -34 1
-50 12 -11 18 -10 32 3 15 16 15 17 -1 17 -16 0 -17 6 -12 44 8 48 -7 70 -25
36z"/>
<path d="M3697 122 c-22 -24 -21 -31 3 -25 23 6 25 -3 5 -37 -17 -29 -19 -50
-5 -50 16 0 33 42 32 79 -2 45 -14 56 -35 33z"/>
<path d="M3756 121 c-22 -24 -20 -30 5 -24 12 4 20 2 18 -3 -3 -5 -11 -21 -19
-37 -10 -21 -11 -30 -2 -39 9 -9 16 -8 30 6 12 14 14 20 5 23 -9 3 -11 17 -7
43 7 43 -6 58 -30 31z"/>
<path d="M4546 121 c-22 -24 -20 -30 5 -24 12 4 20 2 18 -3 -3 -5 -11 -21 -19
-37 -11 -22 -11 -30 -1 -40 10 -9 15 -8 27 8 9 12 11 21 4 23 -6 2 -8 19 -4
42 7 43 -6 58 -30 31z"/>
<path d="M4610 120 c-9 -16 -8 -20 5 -20 19 0 19 -5 -2 -36 -15 -23 -15 -26 0
-42 16 -15 18 -15 34 1 16 16 16 17 0 17 -16 0 -17 6 -12 44 8 48 -7 70 -25
36z"/>
<path d="M4807 122 c-22 -24 -21 -31 3 -25 23 6 25 -3 5 -37 -17 -29 -19 -50
-5 -50 16 0 33 42 32 79 -2 45 -14 56 -35 33z"/>
<path d="M4866 121 c-22 -24 -20 -30 5 -24 12 4 20 2 18 -3 -3 -5 -11 -21 -19
-37 -10 -21 -11 -30 -2 -39 9 -9 16 -8 30 6 12 14 14 20 5 23 -9 3 -11 17 -7
43 7 43 -6 58 -30 31z"/>
<path d="M5656 121 c-22 -24 -20 -30 5 -24 12 4 20 2 18 -3 -3 -5 -11 -21 -19
-37 -10 -21 -11 -30 -2 -39 9 -9 16 -8 30 6 12 14 14 20 5 23 -9 3 -11 17 -7
43 7 43 -6 58 -30 31z"/>
<path d="M5721 121 c-15 -26 -14 -31 4 -25 19 8 19 -1 -2 -32 -15 -23 -15 -26
0 -42 16 -15 18 -15 34 1 16 16 16 17 0 17 -14 0 -16 7 -11 44 7 48 -8 69 -25
37z"/>
<path d="M5976 121 c-22 -24 -22 -49 -1 -31 24 20 29 4 9 -29 -14 -24 -16 -33
-6 -43 10 -10 16 -8 30 6 12 14 14 20 5 23 -9 3 -11 17 -7 43 7 43 -6 58 -30
31z"/>
<path d="M6590 120 c-9 -16 -8 -20 5 -20 19 0 19 -19 0 -44 -19 -25 -19 -46 0
-46 8 0 15 5 15 11 0 23 33 79 46 79 18 0 17 -20 -1 -44 -17 -23 -20 -46 -4
-46 16 0 38 62 32 93 -8 40 -20 42 -43 5 l-20 -33 0 27 c0 35 -16 44 -30 18z"/>
<path d="M6706 121 c-22 -24 -20 -27 12 -25 16 0 28 7 30 16 4 23 -24 29 -42
9z"/>
<path d="M6910 120 c-9 -16 -8 -20 5 -20 19 0 19 -19 0 -44 -18 -24 -19 -46
-2 -46 18 0 35 51 29 88 -5 40 -18 49 -32 22z"/>
<path d="M7700 120 c-9 -16 -8 -20 5 -20 19 0 19 -19 0 -44 -19 -25 -19 -46
-1 -46 18 0 26 22 26 75 0 49 -14 66 -30 35z"/>
<path d="M7756 119 c-20 -30 -21 -45 -1 -29 24 20 31 3 12 -29 -19 -33 -22
-51 -7 -51 16 0 33 42 32 79 -2 47 -16 58 -36 30z"/>
<path d="M7823 128 c-22 -29 -23 -36 -3 -31 24 6 25 0 3 -38 -14 -23 -15 -31
-5 -41 10 -10 16 -8 30 5 14 15 15 19 3 27 -12 7 -13 13 -2 36 10 22 10 30 -2
41 -11 11 -16 12 -24 1z"/>
<path d="M8021 121 c-15 -26 -14 -31 4 -25 19 8 19 -15 0 -40 -19 -25 -19 -46
-1 -46 19 0 34 48 28 88 -5 40 -18 49 -31 23z"/>
<path d="M8810 120 c-9 -16 -8 -20 5 -20 19 0 19 -19 0 -44 -19 -25 -19 -46
-1 -46 18 0 26 22 26 75 0 49 -14 66 -30 35z"/>
<path d="M8866 118 c-20 -29 -21 -44 -1 -28 24 20 31 3 12 -29 -21 -36 -22
-51 -2 -51 8 0 15 5 15 11 0 23 33 79 46 79 17 0 17 -4 0 -39 -20 -37 -5 -64
21 -38 14 14 15 19 5 26 -10 6 -10 14 -2 36 9 22 8 32 -4 43 -13 13 -17 11
-35 -19 l-21 -34 0 27 c0 36 -15 43 -34 16z"/>
<path d="M9131 121 c-15 -26 -14 -31 4 -25 19 8 20 -16 0 -42 -18 -24 -19 -44
-1 -44 19 0 34 48 28 88 -5 40 -18 49 -31 23z"/>
<path d="M135 94 c-38 -45 -45 -56 -45 -71 0 -28 22 -11 37 27 15 38 42 58 63
45 5 -3 10 3 10 14 0 33 -32 25 -65 -15z"/>
<path d="M227 123 c-12 -11 -8 -23 8 -23 8 0 15 -4 15 -9 0 -5 -7 -14 -15 -21
-20 -17 -19 -46 2 -55 12 -4 24 1 35 15 16 20 17 20 23 0 7 -23 16 -25 33 -8
17 17 15 28 -4 21 -9 -3 -20 0 -25 8 -6 11 -11 11 -21 1 -22 -22 -29 -12 -22
33 5 36 3 45 -8 45 -8 0 -18 -3 -21 -7z"/>
<path d="M290 100 c0 -16 2 -30 4 -30 2 0 9 14 15 30 8 24 7 30 -5 30 -9 0
-14 -10 -14 -30z"/>
<path d="M356 115 c-3 -9 0 -15 9 -15 19 0 19 -21 0 -46 -18 -24 -19 -44 -1
-44 19 0 34 48 28 88 -4 33 -26 43 -36 17z"/>
<path d="M410 110 c-10 -19 -9 -20 14 -14 31 7 32 -2 6 -36 -23 -30 -26 -50
-6 -50 17 0 39 60 34 92 -4 30 -34 35 -48 8z"/>
<path d="M477 123 c-15 -14 -6 -28 18 -28 17 0 25 6 25 18 0 17 -30 24 -43 10z"/>
<path d="M608 90 c-3 -34 3 -61 18 -79 5 -5 34 20 34 29 0 5 -9 6 -20 3 -23
-6 -27 18 -10 61 7 20 6 26 -4 26 -9 0 -15 -15 -18 -40z"/>
<path d="M676 115 c-3 -9 0 -15 9 -15 19 0 19 -18 0 -50 -18 -32 -18 -40 -1
-40 19 0 37 54 29 90 -6 32 -27 40 -37 15z"/>
<path d="M736 114 c-9 -22 -8 -23 14 -17 25 7 25 3 -1 -42 -22 -37 -21 -52 5
-42 16 6 32 88 21 106 -9 16 -32 13 -39 -5z"/>
<path d="M796 114 c-9 -22 -8 -23 15 -17 12 4 20 2 18 -3 -3 -5 -11 -21 -19
-37 -11 -22 -11 -30 -1 -40 10 -9 15 -8 27 8 9 12 11 21 4 23 -6 2 -7 19 -4
43 6 35 4 39 -14 39 -11 0 -23 -7 -26 -16z"/>
<path d="M866 114 c-9 -22 -8 -24 9 -18 8 4 15 2 15 -4 0 -5 -7 -15 -15 -22
-20 -16 -19 -49 1 -57 8 -3 23 2 32 11 15 15 15 16 -1 16 -16 0 -17 6 -11 45
5 36 3 45 -9 45 -8 0 -18 -7 -21 -16z"/>
<path d="M930 100 c0 -16 2 -30 4 -30 2 0 9 14 15 30 8 24 7 30 -5 30 -9 0
-14 -10 -14 -30z"/>
<path d="M980 93 c0 -41 14 -36 25 10 6 21 4 27 -9 27 -12 0 -16 -10 -16 -37z"/>
<path d="M1247 97 c-34 -38 -53 -74 -44 -83 11 -12 34 15 41 46 4 24 12 32 36
36 16 4 30 13 30 20 0 25 -34 15 -63 -19z"/>
<path d="M1337 123 c-12 -11 -8 -23 8 -23 8 0 15 -4 15 -9 0 -5 -7 -14 -15
-21 -8 -7 -15 -20 -15 -30 0 -25 30 -34 49 -15 14 13 14 15 -2 15 -16 0 -17 6
-11 45 5 36 3 45 -8 45 -8 0 -18 -3 -21 -7z"/>
<path d="M1398 90 c-3 -34 3 -61 18 -79 5 -5 34 20 34 29 0 5 -9 6 -20 3 -23
-6 -27 18 -10 61 7 20 6 26 -4 26 -9 0 -15 -15 -18 -40z"/>
<path d="M1466 114 c-9 -22 -8 -24 9 -18 19 8 20 -16 0 -42 -18 -24 -19 -44
-1 -44 19 0 34 48 28 88 -5 34 -26 43 -36 16z"/>
<path d="M1521 111 c-15 -26 -14 -38 1 -23 7 7 20 12 31 12 10 0 17 5 15 13
-7 20 -36 20 -47 -2z"/>
<path d="M1557 81 c-40 -52 -46 -71 -22 -71 8 0 19 17 26 40 12 38 38 58 59
45 5 -3 10 3 10 14 0 37 -34 23 -73 -28z"/>
<path d="M1657 123 c-12 -11 -8 -23 8 -23 8 0 15 -4 15 -9 0 -5 -7 -14 -15
-21 -20 -16 -19 -49 1 -57 8 -3 23 2 32 11 15 15 15 16 -1 16 -16 0 -17 6 -11
45 5 36 3 45 -8 45 -8 0 -18 -3 -21 -7z"/>
<path d="M1718 90 c-3 -34 3 -61 18 -79 5 -5 34 20 34 29 0 5 -9 6 -20 3 -23
-6 -27 18 -10 61 7 20 6 26 -4 26 -9 0 -15 -15 -18 -40z"/>
<path d="M1786 115 c-3 -9 0 -15 9 -15 19 0 19 -18 0 -50 -18 -32 -18 -40 -2
-40 8 0 21 18 30 40 14 37 40 60 53 47 3 -2 -4 -20 -15 -38 -25 -40 -26 -49
-7 -49 20 0 25 10 32 64 8 56 -14 73 -46 35 l-19 -24 -1 23 c0 25 -25 30 -34
7z"/>
<path d="M1906 114 c-9 -22 -8 -23 15 -17 12 4 20 2 18 -3 -3 -5 -11 -21 -19
-37 -11 -22 -11 -30 -1 -40 10 -9 15 -8 27 8 9 12 11 21 4 23 -6 2 -7 19 -4
43 6 35 4 39 -14 39 -11 0 -23 -7 -26 -16z"/>
<path d="M1976 114 c-9 -22 -8 -24 9 -18 8 4 15 2 15 -4 0 -5 -7 -15 -15 -22
-19 -16 -19 -34 1 -50 12 -11 18 -10 32 3 15 16 15 17 -1 17 -16 0 -17 6 -11
45 5 36 3 45 -9 45 -8 0 -18 -7 -21 -16z"/>
<path d="M2040 83 c0 -27 5 -55 10 -63 8 -13 11 -13 27 3 16 16 16 17 -5 17
-24 0 -26 10 -13 58 8 25 7 32 -5 32 -10 0 -14 -13 -14 -47z"/>
<path d="M2090 93 c0 -41 14 -36 25 10 6 21 4 27 -9 27 -12 0 -16 -10 -16 -37z"/>
<path d="M2447 123 c-13 -12 -7 -23 13 -23 11 0 20 7 20 15 0 15 -21 21 -33 8z"/>
<path d="M2508 88 c-2 -33 -8 -44 -22 -46 -15 -3 -18 1 -14 22 5 26 5 26 -13
10 -11 -9 -19 -25 -19 -34 0 -25 30 -33 51 -15 16 15 18 15 27 -1 9 -15 13
-16 26 -5 22 18 20 30 -4 24 -23 -6 -27 18 -10 61 7 20 6 26 -5 26 -9 0 -15
-14 -17 -42z"/>
<path d="M2576 114 c-9 -22 -8 -24 9 -18 19 8 20 -16 0 -42 -18 -24 -19 -44
-1 -44 19 0 34 48 28 88 -5 34 -26 43 -36 16z"/>
<path d="M2631 111 c-15 -26 -14 -38 1 -23 7 7 20 12 31 12 10 0 17 5 15 13
-7 20 -36 20 -47 -2z"/>
<path d="M2682 103 c-22 -24 -52 -76 -52 -88 0 -3 6 -5 13 -5 7 0 21 19 32 43
15 32 25 42 43 41 15 0 22 5 22 18 0 26 -31 22 -58 -9z"/>
<path d="M2766 115 c-3 -9 0 -15 9 -15 19 0 19 -14 0 -30 -20 -16 -19 -49 1
-57 8 -3 23 2 32 11 15 15 15 16 -1 16 -16 0 -17 6 -11 45 5 36 3 45 -9 45 -8
0 -17 -7 -21 -15z"/>
<path d="M2830 83 c0 -61 12 -82 34 -64 22 18 20 30 -4 24 -23 -6 -25 5 -11
55 8 25 7 32 -5 32 -10 0 -14 -13 -14 -47z"/>
<path d="M2900 116 c0 -8 6 -16 13 -19 9 -3 8 -13 -5 -41 -22 -44 -22 -46 -4
-46 19 0 34 48 28 88 -4 31 -32 47 -32 18z"/>
<path d="M2952 110 c-15 -25 -16 -38 0 -22 7 7 20 12 30 12 15 0 15 -4 -7 -36
-29 -43 -31 -57 -8 -52 11 2 21 18 26 40 6 23 16 40 29 44 28 9 31 1 11 -34
-15 -26 -16 -33 -5 -44 11 -11 16 -9 28 7 9 12 11 21 4 23 -6 2 -7 19 -4 43 6
35 4 39 -14 39 -11 0 -23 -8 -27 -17 -6 -17 -7 -17 -16 0 -13 23 -31 22 -47
-3z"/>
<path d="M3086 114 c-9 -22 -8 -24 9 -18 19 8 19 -1 -2 -32 -15 -23 -15 -26 0
-42 16 -15 18 -15 34 1 16 16 16 17 0 17 -16 0 -17 6 -11 45 5 36 3 45 -9 45
-8 0 -18 -7 -21 -16z"/>
<path d="M3150 83 c0 -27 5 -55 10 -63 8 -13 11 -13 27 3 16 16 16 17 -6 17
-20 0 -23 4 -18 28 3 15 9 35 12 45 5 12 2 17 -9 17 -12 0 -16 -10 -16 -47z"/>
<path d="M3200 93 c0 -41 14 -36 25 10 6 21 4 27 -9 27 -12 0 -16 -10 -16 -37z"/>
<path d="M3317 124 c-12 -12 -8 -24 8 -24 19 0 19 -2 -5 -44 -15 -24 -18 -36
-10 -41 20 -12 34 13 34 61 1 44 -11 64 -27 48z"/>
<path d="M3366 114 c-9 -22 -8 -23 14 -17 25 7 25 -1 0 -43 -14 -22 -17 -35
-9 -39 18 -12 32 11 37 64 4 46 3 51 -16 51 -11 0 -23 -7 -26 -16z"/>
<path d="M3560 98 c0 -34 13 -29 25 10 5 16 2 22 -9 22 -11 0 -16 -10 -16 -32z"/>
<path d="M3637 124 c-12 -12 -8 -24 8 -24 20 0 19 -9 -5 -47 -22 -36 -7 -60
17 -27 25 34 6 124 -20 98z"/>
<path d="M3817 116 c-3 -8 2 -16 13 -19 23 -6 30 0 23 19 -7 18 -29 18 -36 0z"/>
<path d="M3880 100 c0 -16 5 -30 10 -30 6 0 10 3 10 8 0 4 3 17 6 30 5 16 2
22 -10 22 -11 0 -16 -9 -16 -30z"/>
<path d="M3957 123 c-12 -11 -8 -23 8 -23 19 0 19 -19 0 -44 -19 -25 -19 -46
-1 -46 16 0 26 30 26 83 0 35 -15 49 -33 30z"/>
<path d="M4010 111 c-14 -28 -12 -36 5 -21 24 20 31 3 12 -29 -20 -35 -22 -51
-4 -51 17 0 36 60 30 94 -6 31 -28 34 -43 7z"/>
<path d="M4072 118 c-18 -18 -15 -23 13 -23 17 0 25 6 25 18 0 20 -20 23 -38
5z"/>
<path d="M4140 115 c-11 -13 -9 -15 15 -15 16 0 25 5 23 12 -7 19 -24 20 -38
3z"/>
<path d="M4200 100 c0 -16 5 -30 10 -30 6 0 10 3 10 8 0 4 3 17 6 30 5 16 2
22 -10 22 -11 0 -16 -9 -16 -30z"/>
<path d="M4258 94 c5 -40 5 -40 20 4 10 28 9 32 -7 32 -14 0 -16 -7 -13 -36z"/>
<path d="M4427 124 c-13 -13 -7 -24 14 -24 11 0 19 5 17 12 -5 14 -22 21 -31
12z"/>
<path d="M4482 118 c-18 -18 -15 -27 8 -21 24 6 26 -6 5 -33 -17 -22 -20 -54
-5 -54 15 0 30 45 30 86 0 35 -16 44 -38 22z"/>
<path d="M4670 98 c0 -34 13 -29 25 10 5 16 2 22 -9 22 -11 0 -16 -10 -16 -32z"/>
<path d="M4747 123 c-12 -11 -8 -23 8 -23 20 0 19 -9 -5 -47 -13 -22 -16 -34
-8 -39 18 -11 38 27 38 73 0 41 -14 56 -33 36z"/>
<path d="M4926 115 c-3 -9 0 -15 9 -15 19 0 19 -10 -1 -39 -14 -20 -15 -25 -2
-37 8 -8 22 -12 31 -8 22 8 22 24 1 24 -13 0 -15 6 -9 27 8 32 8 34 6 51 -1
17 -28 15 -35 -3z"/>
<path d="M4990 100 c0 -16 5 -30 10 -30 6 0 10 3 10 8 0 4 3 17 6 30 5 16 2
22 -10 22 -11 0 -16 -9 -16 -30z"/>
<path d="M5067 123 c-12 -11 -8 -23 8 -23 19 0 19 -19 0 -44 -19 -25 -19 -46
-1 -46 16 0 26 30 26 83 0 35 -15 49 -33 30z"/>
<path d="M5120 111 c-14 -28 -12 -36 5 -21 24 20 31 3 12 -29 -21 -35 -22 -51
-3 -51 8 0 17 13 21 29 6 30 41 69 51 58 3 -3 -2 -19 -12 -36 -14 -24 -16 -33
-6 -43 10 -10 16 -8 30 6 12 14 14 20 5 23 -9 3 -11 17 -7 45 6 35 5 40 -12
36 -10 -2 -24 -14 -31 -28 l-13 -25 0 28 c0 32 -24 37 -40 8z"/>
<path d="M5257 124 c-13 -13 -7 -24 14 -24 11 0 19 5 17 12 -5 14 -22 21 -31
12z"/>
<path d="M5310 100 c0 -16 5 -30 10 -30 6 0 10 3 10 8 0 4 3 17 6 30 5 16 2
22 -10 22 -11 0 -16 -9 -16 -30z"/>
<path d="M5368 94 c5 -40 5 -40 20 4 10 28 9 32 -7 32 -14 0 -16 -7 -13 -36z"/>
<path d="M5537 124 c-13 -13 -7 -24 14 -24 11 0 19 5 17 12 -5 14 -22 21 -31
12z"/>
<path d="M5574 97 c-40 -41 -57 -74 -44 -82 15 -9 27 2 35 32 9 37 23 53 46
53 11 0 19 7 19 15 0 24 -23 17 -56 -18z"/>
<path d="M5780 87 c0 -47 20 -84 38 -73 18 11 14 34 -5 32 -19 -1 -22 21 -9
62 6 16 3 22 -8 22 -12 0 -16 -11 -16 -43z"/>
<path d="M5857 124 c-13 -13 -7 -24 14 -24 11 0 19 5 17 12 -5 14 -22 21 -31
12z"/>
<path d="M5912 118 c-7 -7 -12 -19 -11 -27 0 -11 2 -12 6 -3 5 14 33 17 33 3
0 -5 -8 -23 -17 -40 -20 -34 -9 -56 13 -27 18 25 19 106 1 106 -7 0 -18 -5
-25 -12z"/>
<path d="M6037 115 c-4 -9 -1 -15 8 -15 19 0 19 -10 -1 -39 -15 -21 -15 -24
-1 -38 9 -9 23 -13 31 -10 21 8 21 27 0 27 -13 0 -15 6 -9 27 4 16 8 35 9 43
1 20 -30 25 -37 5z"/>
<path d="M6100 100 c0 -16 5 -30 10 -30 6 0 10 3 10 8 0 4 3 17 6 30 5 16 2
22 -10 22 -11 0 -16 -9 -16 -30z"/>
<path d="M6176 115 c-3 -9 0 -15 9 -15 19 0 19 -19 0 -44 -19 -25 -19 -46 -1
-46 16 0 26 30 26 83 0 38 -22 53 -34 22z"/>
<path d="M6230 111 c-14 -28 -12 -36 5 -21 24 20 31 3 12 -29 -21 -35 -22 -51
-3 -51 8 0 17 13 21 29 6 30 41 69 51 58 3 -3 -2 -19 -12 -36 -14 -24 -16 -33
-6 -43 10 -10 16 -8 30 5 14 15 15 19 3 26 -11 7 -11 15 -3 39 17 49 -17 61
-42 15 l-15 -28 -1 28 c0 32 -24 37 -40 8z"/>
<path d="M6367 124 c-13 -13 -7 -24 14 -24 11 0 19 5 17 12 -5 14 -22 21 -31
12z"/>
<path d="M6420 100 c0 -16 5 -30 10 -30 6 0 10 3 10 8 0 4 3 17 6 30 5 16 2
22 -10 22 -11 0 -16 -9 -16 -30z"/>
<path d="M6478 94 c5 -37 12 -33 26 14 6 17 3 22 -11 22 -16 0 -18 -6 -15 -36z"/>
<path d="M6777 123 c-12 -11 -8 -21 13 -26 15 -4 20 0 20 14 0 18 -20 26 -33
12z"/>
<path d="M6837 123 c-10 -10 -8 -53 2 -53 10 0 21 24 21 46 0 15 -12 19 -23 7z"/>
<path d="M6960 111 c-14 -28 -12 -36 5 -21 24 20 31 3 12 -29 -21 -36 -22 -51
-2 -51 17 0 35 58 28 94 -6 31 -28 34 -43 7z"/>
<path d="M7021 111 c-9 -16 -6 -18 19 -17 21 1 30 6 30 19 0 23 -36 22 -49 -2z"/>
<path d="M7097 123 c-12 -11 -8 -23 8 -23 8 0 15 -4 15 -9 0 -5 -7 -14 -15
-21 -20 -16 -19 -49 1 -57 8 -3 23 2 32 11 15 15 15 16 -1 16 -16 0 -17 6 -11
45 5 36 3 45 -8 45 -8 0 -18 -3 -21 -7z"/>
<path d="M7156 114 c-9 -23 -7 -44 3 -44 5 0 14 14 20 30 8 24 7 30 -3 30 -8
0 -17 -7 -20 -16z"/>
<path d="M7226 115 c-3 -9 0 -15 9 -15 19 0 19 -21 0 -46 -18 -24 -19 -44 -2
-44 8 0 21 18 30 40 14 37 40 60 54 47 3 -3 -4 -19 -16 -35 -24 -35 -27 -52
-7 -52 15 0 36 50 36 87 0 34 -29 41 -51 12 l-19 -24 0 23 c0 25 -25 30 -34 7z"/>
<path d="M7346 114 c-3 -9 -6 -16 -6 -17 0 -1 11 -2 25 -2 17 0 25 6 25 18 0
22 -36 23 -44 1z"/>
<path d="M7417 123 c-12 -11 -8 -23 8 -23 8 0 15 -4 15 -9 0 -5 -7 -14 -15
-21 -20 -16 -19 -49 1 -57 8 -3 23 2 32 11 15 15 15 16 -1 16 -16 0 -17 6 -11
45 5 36 3 45 -8 45 -8 0 -18 -3 -21 -7z"/>
<path d="M7478 105 c-7 -37 8 -40 21 -5 8 24 7 30 -3 30 -8 0 -16 -11 -18 -25z"/>
<path d="M7530 93 c1 -39 10 -33 24 15 6 16 3 22 -8 22 -12 0 -16 -10 -16 -37z"/>
<path d="M7887 123 c-13 -12 -7 -23 13 -23 11 0 20 7 20 15 0 15 -21 21 -33 8z"/>
<path d="M7948 105 c-6 -29 7 -43 16 -19 9 23 7 44 -3 44 -5 0 -11 -11 -13
-25z"/>
<path d="M8070 111 c-14 -28 -12 -36 5 -21 24 20 31 3 12 -29 -21 -35 -22 -51
-3 -51 19 0 37 54 29 90 -6 34 -27 39 -43 11z"/>
<path d="M8131 112 c-9 -16 -6 -19 20 -19 21 0 29 5 29 19 0 24 -36 24 -49 0z"/>
<path d="M8207 123 c-12 -11 -8 -23 8 -23 8 0 15 -4 15 -9 0 -5 -7 -14 -15
-21 -19 -16 -19 -49 0 -57 9 -3 24 2 34 12 18 15 20 15 29 -1 9 -15 13 -16 26
-5 22 18 20 30 -4 24 -23 -6 -27 18 -10 61 7 21 6 26 -5 26 -10 0 -15 -10 -15
-29 0 -40 -9 -61 -27 -61 -11 0 -13 9 -7 45 5 36 3 45 -8 45 -8 0 -18 -3 -21
-7z"/>
<path d="M8336 115 c-3 -9 0 -15 9 -15 19 0 19 -21 0 -46 -18 -24 -19 -44 -1
-44 19 0 34 48 28 88 -4 33 -26 43 -36 17z"/>
<path d="M8390 111 c-14 -26 -13 -38 2 -23 7 7 20 12 30 12 15 0 15 -4 -7 -36
-29 -42 -31 -54 -10 -54 8 0 19 17 26 40 12 38 38 58 59 45 5 -3 10 3 10 14 0
26 -35 29 -45 4 -6 -17 -7 -17 -19 0 -17 22 -33 22 -46 -2z"/>
<path d="M8526 115 c-3 -9 0 -15 9 -15 19 0 19 -14 0 -30 -20 -16 -19 -49 1
-57 8 -3 23 2 32 11 15 15 15 16 -1 16 -16 0 -17 6 -11 45 5 36 3 45 -9 45 -8
0 -17 -7 -21 -15z"/>
<path d="M8588 90 c-3 -34 3 -61 18 -79 5 -5 34 20 34 29 0 5 -9 6 -20 3 -23
-6 -27 18 -10 61 7 20 6 26 -4 26 -9 0 -15 -15 -18 -40z"/>
<path d="M8640 93 c1 -39 10 -33 24 15 6 16 3 22 -8 22 -12 0 -16 -10 -16 -37z"/>
<path d="M8997 123 c-13 -12 -7 -23 13 -23 11 0 20 7 20 15 0 15 -21 21 -33 8z"/>
<path d="M9060 100 c0 -16 2 -30 4 -30 2 0 9 14 15 30 8 24 7 30 -5 30 -9 0
-14 -10 -14 -30z"/>
<path d="M9180 111 c-14 -28 -12 -36 5 -21 24 20 31 3 12 -29 -20 -35 -22 -51
-4 -51 7 0 21 19 32 43 16 33 25 41 43 40 16 -2 22 2 22 17 0 28 -33 26 -54
-2 -9 -13 -15 -18 -15 -13 5 39 -23 49 -41 16z"/>
<path d="M9317 123 c-12 -11 -8 -23 8 -23 8 0 15 -4 15 -9 0 -5 -7 -14 -15
-21 -19 -16 -19 -49 0 -57 9 -3 24 2 34 12 18 15 20 15 29 -1 9 -15 13 -16 26
-5 22 18 20 30 -4 24 -23 -6 -27 18 -10 61 7 20 6 26 -5 26 -9 0 -15 -14 -17
-42 -2 -32 -8 -44 -21 -46 -17 -3 -18 1 -12 42 6 37 4 46 -7 46 -8 0 -18 -3
-21 -7z"/>
<path d="M9446 114 c-9 -22 -8 -24 9 -18 19 8 19 -13 0 -46 -18 -32 -18 -40
-1 -40 19 0 34 48 28 88 -5 34 -26 43 -36 16z"/>
<path d="M9502 110 c-15 -25 -16 -38 0 -22 7 7 20 12 30 12 11 0 15 5 12 15
-8 21 -27 19 -42 -5z"/>
<path d="M9552 103 c-22 -24 -52 -76 -52 -88 0 -3 6 -5 13 -5 7 0 21 19 32 43
15 32 25 42 43 41 15 0 22 5 22 18 0 26 -31 22 -58 -9z"/>
<path d="M9636 115 c-3 -9 0 -15 9 -15 19 0 19 -14 0 -30 -20 -16 -19 -49 1
-57 8 -3 23 2 32 11 15 15 15 16 -1 16 -16 0 -17 6 -11 45 5 36 3 45 -9 45 -8
0 -17 -7 -21 -15z"/>
<path d="M9700 83 c0 -61 12 -82 34 -64 22 18 20 30 -4 24 -23 -6 -25 5 -11
55 8 25 7 32 -5 32 -10 0 -14 -13 -14 -47z"/>
<path d="M9750 93 c1 -39 10 -33 24 15 6 16 3 22 -8 22 -12 0 -16 -10 -16 -37z"/>
<path d="M2327 61 c-20 -35 -22 -51 -4 -51 15 0 40 61 29 72 -4 4 -15 -5 -25
-21z"/>
<path d="M4432 61 c-20 -34 -21 -51 -1 -51 12 0 31 49 26 69 -2 11 -10 6 -25
-18z"/>
<path d="M5603 60 c-21 -33 -22 -50 -2 -50 12 0 31 48 27 69 -2 10 -10 4 -25
-19z"/>
<path d="M5862 56 c-19 -33 -15 -55 7 -41 11 6 25 64 18 71 -2 3 -14 -11 -25
-30z"/>
<path d="M166 58 c-17 -24 -5 -51 20 -41 16 6 19 33 4 33 -5 0 -7 7 -4 15 9
22 -3 18 -20 -7z"/>
<path d="M492 68 c-17 -17 -15 -58 3 -58 20 0 28 21 18 48 -7 18 -11 20 -21
10z"/>
<path d="M1276 58 c-12 -16 -13 -25 -4 -35 9 -12 14 -11 27 3 11 12 13 18 4
21 -7 2 -9 11 -6 19 8 21 -4 17 -21 -8z"/>
<path d="M1602 68 c-17 -17 -15 -58 3 -58 20 0 28 21 18 48 -7 18 -11 20 -21
10z"/>
<path d="M2386 58 c-12 -16 -13 -25 -4 -35 9 -12 14 -11 27 2 13 13 14 17 2
24 -7 5 -10 14 -7 20 13 20 -3 11 -18 -11z"/>
<path d="M2712 68 c-15 -15 -16 -45 -1 -54 19 -11 32 12 23 41 -7 20 -12 23
-22 13z"/>
<path d="M3822 59 c-12 -18 -12 -24 0 -36 8 -7 22 -11 31 -7 21 8 22 24 3 24
-8 0 -16 9 -18 20 -3 20 -3 20 -16 -1z"/>
<path d="M4080 56 c-10 -20 -11 -29 -2 -38 9 -9 16 -8 30 5 11 12 13 20 6 25
-6 4 -13 13 -15 20 -3 9 -10 5 -19 -12z"/>
<path d="M4145 60 c-17 -19 -17 -22 -3 -37 9 -9 24 -13 32 -10 21 8 21 27 0
27 -11 0 -15 6 -11 20 6 25 5 25 -18 0z"/>
<path d="M5255 60 c-17 -19 -17 -22 -3 -37 9 -9 24 -13 32 -10 21 8 21 27 0
27 -11 0 -15 6 -11 20 6 25 5 25 -18 0z"/>
<path d="M6365 60 c-17 -19 -17 -22 -3 -37 9 -9 24 -13 32 -10 21 8 21 27 0
27 -11 0 -15 6 -11 20 6 25 5 25 -18 0z"/>
<path d="M6710 56 c-10 -20 -11 -29 -2 -38 9 -9 16 -8 30 5 11 12 13 20 6 25
-6 4 -13 13 -15 20 -3 9 -10 5 -19 -12z"/>
<path d="M6782 68 c-17 -17 -15 -48 4 -55 8 -3 21 0 27 6 9 10 8 14 -5 22 -10
5 -15 16 -12 24 7 18 2 19 -14 3z"/>
<path d="M7036 59 c-16 -24 -11 -49 10 -49 18 0 32 32 16 38 -6 2 -8 10 -5 18
8 21 -4 17 -21 -7z"/>
<path d="M7362 68 c-17 -17 -15 -58 3 -58 20 0 28 21 18 48 -7 18 -11 20 -21
10z"/>
<path d="M7892 68 c-17 -17 -15 -45 5 -52 24 -10 43 13 21 25 -10 5 -15 16
-12 24 7 18 2 19 -14 3z"/>
<path d="M8144 54 c-19 -28 -7 -51 20 -41 17 7 22 37 6 37 -5 0 -7 7 -4 15 9
24 -4 17 -22 -11z"/>
<path d="M8472 68 c-17 -17 -15 -58 3 -58 20 0 28 21 18 48 -7 18 -11 20 -21
10z"/>
<path d="M9002 68 c-17 -17 -15 -45 5 -52 24 -10 43 13 21 25 -10 5 -15 16
-12 24 7 18 2 19 -14 3z"/>
<path d="M9256 59 c-16 -24 -11 -49 10 -49 20 0 30 30 14 40 -7 4 -9 13 -6 19
13 20 -3 11 -18 -10z"/>
<path d="M9582 68 c-15 -15 -16 -45 -1 -54 19 -11 32 12 23 41 -7 20 -12 23
-22 13z"/>
<path d="M3560 45 c0 -22 26 -37 38 -23 8 10 4 16 -14 25 -19 9 -24 8 -24 -2z"/>
<path d="M3880 47 c0 -8 7 -20 16 -28 13 -10 17 -10 24 2 6 9 5 15 -3 18 -7 2
-18 8 -24 14 -9 7 -13 5 -13 -6z"/>
<path d="M4200 56 c0 -14 21 -46 30 -46 5 0 14 9 20 20 9 16 8 18 -5 14 -8 -4
-22 -1 -30 6 -8 7 -15 9 -15 6z"/>
<path d="M4670 46 c0 -21 23 -36 40 -26 8 5 12 10 10 12 -37 24 -50 27 -50 14z"/>
<path d="M4990 47 c0 -8 7 -20 16 -28 13 -10 17 -10 24 2 6 9 5 15 -3 18 -7 2
-18 8 -24 14 -9 7 -13 5 -13 -6z"/>
<path d="M5310 51 c0 -17 28 -43 38 -37 18 11 14 20 -13 33 -14 6 -25 8 -25 4z"/>
<path d="M6100 45 c0 -17 27 -38 40 -30 16 10 12 19 -15 32 -20 9 -25 8 -25
-2z"/>
<path d="M6420 51 c0 -17 28 -43 38 -37 18 11 14 20 -13 33 -14 6 -25 8 -25 4z"/>
<path d="M6837 40 c7 -27 21 -34 38 -20 20 16 19 31 0 24 -8 -4 -22 -1 -29 5
-12 10 -13 8 -9 -9z"/>
<path d="M7158 39 c12 -31 28 -35 42 -10 9 17 8 20 -5 15 -8 -4 -22 -1 -30 6
-13 11 -14 10 -7 -11z"/>
<path d="M7481 37 c15 -32 25 -34 39 -7 9 16 8 18 -5 14 -8 -4 -22 0 -31 7
-13 11 -14 9 -3 -14z"/>
<path d="M7940 54 c0 -5 7 -18 15 -28 12 -16 17 -17 30 -6 19 16 19 31 0 24
-8 -4 -22 -1 -30 6 -8 7 -15 9 -15 4z"/>
<path d="M9057 53 c-3 -4 1 -17 9 -27 11 -16 16 -17 29 -6 20 16 19 31 -1 23
-9 -3 -20 0 -24 7 -4 6 -10 8 -13 3z"/>
<path d="M930 41 c0 -3 5 -13 10 -21 8 -13 11 -13 25 1 15 15 15 17 -9 21 -14
3 -26 2 -26 -1z"/>
</g>
</svg>
